{
	"patcher" : 	{
		"fileversion" : 1,
		"appversion" : 		{
			"major" : 8,
			"minor" : 0,
			"revision" : 3,
			"architecture" : "x64",
			"modernui" : 1
		}
,
		"classnamespace" : "box",
		"rect" : [ 345.0, 172.0, 1052.0, 543.0 ],
		"bglocked" : 0,
		"openinpresentation" : 0,
		"default_fontsize" : 12.0,
		"default_fontface" : 0,
		"default_fontname" : "Arial",
		"gridonopen" : 1,
		"gridsize" : [ 15.0, 15.0 ],
		"gridsnaponopen" : 1,
		"objectsnaponopen" : 1,
		"statusbarvisible" : 2,
		"toolbarvisible" : 1,
		"lefttoolbarpinned" : 0,
		"toptoolbarpinned" : 0,
		"righttoolbarpinned" : 0,
		"bottomtoolbarpinned" : 0,
		"toolbars_unpinned_last_save" : 0,
		"tallnewobj" : 0,
		"boxanimatetime" : 200,
		"enablehscroll" : 1,
		"enablevscroll" : 1,
		"devicewidth" : 0.0,
		"description" : "",
		"digest" : "",
		"tags" : "",
		"style" : "",
		"subpatcher_template" : "",
		"boxes" : [ 			{
				"box" : 				{
					"id" : "obj-111",
					"linecount" : 3,
					"maxclass" : "comment",
					"numinlets" : 1,
					"numoutlets" : 0,
					"patching_rect" : [ 335.80340576171875, 266.559906005859375, 240.77777099609375, 47.0 ],
					"presentation_linecount" : 5,
					"text" : ">> Higher position numbers are passed on first by the [if] objects so that the result is always positive",
					"textcolor" : [ 0.996078431606293, 0.996078431606293, 0.996078431606293, 1.0 ]
				}

			}
, 			{
				"box" : 				{
					"id" : "obj-106",
					"maxclass" : "comment",
					"numinlets" : 1,
					"numoutlets" : 0,
					"patching_rect" : [ 324.80340576171875, 43.401378631591797, 72.0, 20.0 ],
					"text" : "Joint 2",
					"textcolor" : [ 0.996078431606293, 0.996078431606293, 0.996078431606293, 1.0 ],
					"textjustification" : 1
				}

			}
, 			{
				"box" : 				{
					"id" : "obj-107",
					"maxclass" : "comment",
					"numinlets" : 1,
					"numoutlets" : 0,
					"patching_rect" : [ 398.80340576171875, 31.571990966796875, 72.0, 20.0 ],
					"text" : "X      Y      Z",
					"textcolor" : [ 0.996078431606293, 0.996078431606293, 0.996078431606293, 1.0 ],
					"textjustification" : 1
				}

			}
, 			{
				"box" : 				{
					"comment" : "",
					"id" : "obj-108",
					"index" : 0,
					"maxclass" : "inlet",
					"numinlets" : 0,
					"numoutlets" : 1,
					"outlettype" : [ "" ],
					"patching_rect" : [ 451.17376708984375, 53.571994781494141, 19.629629135131836, 19.629629135131836 ],
					"tricolor" : [ 0.086274509803922, 0.568627450980392, 0.588235294117647, 1.0 ]
				}

			}
, 			{
				"box" : 				{
					"comment" : "",
					"id" : "obj-109",
					"index" : 0,
					"maxclass" : "inlet",
					"numinlets" : 0,
					"numoutlets" : 1,
					"outlettype" : [ "" ],
					"patching_rect" : [ 424.98858642578125, 53.571994781494141, 19.629629135131836, 19.629629135131836 ],
					"tricolor" : [ 0.086274509803922, 0.568627450980392, 0.588235294117647, 1.0 ]
				}

			}
, 			{
				"box" : 				{
					"comment" : "",
					"id" : "obj-110",
					"index" : 0,
					"maxclass" : "inlet",
					"numinlets" : 0,
					"numoutlets" : 1,
					"outlettype" : [ "" ],
					"patching_rect" : [ 398.80340576171875, 53.571994781494141, 19.629629135131836, 19.629629135131836 ],
					"tricolor" : [ 0.086274509803922, 0.568627450980392, 0.588235294117647, 1.0 ]
				}

			}
, 			{
				"box" : 				{
					"id" : "obj-105",
					"maxclass" : "comment",
					"numinlets" : 1,
					"numoutlets" : 0,
					"patching_rect" : [ 133.80340576171875, 43.401378631591797, 72.0, 20.0 ],
					"text" : "Joint 1",
					"textcolor" : [ 0.996078431606293, 0.996078431606293, 0.996078431606293, 1.0 ],
					"textjustification" : 1
				}

			}
, 			{
				"box" : 				{
					"id" : "obj-104",
					"maxclass" : "comment",
					"numinlets" : 1,
					"numoutlets" : 0,
					"patching_rect" : [ 207.80340576171875, 31.571992874145508, 72.0, 20.0 ],
					"text" : "X      Y      Z",
					"textcolor" : [ 0.996078431606293, 0.996078431606293, 0.996078431606293, 1.0 ],
					"textjustification" : 1
				}

			}
, 			{
				"box" : 				{
					"comment" : "",
					"id" : "obj-98",
					"index" : 0,
					"maxclass" : "inlet",
					"numinlets" : 0,
					"numoutlets" : 1,
					"outlettype" : [ "" ],
					"patching_rect" : [ 260.17376708984375, 53.571994781494141, 19.629629135131836, 19.629629135131836 ],
					"tricolor" : [ 0.086274509803922, 0.568627450980392, 0.588235294117647, 1.0 ]
				}

			}
, 			{
				"box" : 				{
					"comment" : "",
					"id" : "obj-97",
					"index" : 0,
					"maxclass" : "inlet",
					"numinlets" : 0,
					"numoutlets" : 1,
					"outlettype" : [ "" ],
					"patching_rect" : [ 233.98858642578125, 53.571994781494141, 19.629629135131836, 19.629629135131836 ],
					"tricolor" : [ 0.086274509803922, 0.568627450980392, 0.588235294117647, 1.0 ]
				}

			}
, 			{
				"box" : 				{
					"comment" : "",
					"id" : "obj-96",
					"index" : 0,
					"maxclass" : "inlet",
					"numinlets" : 0,
					"numoutlets" : 1,
					"outlettype" : [ "" ],
					"patching_rect" : [ 207.80340576171875, 53.571994781494141, 19.629629135131836, 19.629629135131836 ],
					"tricolor" : [ 0.086274509803922, 0.568627450980392, 0.588235294117647, 1.0 ]
				}

			}
, 			{
				"box" : 				{
					"angle" : 270.0,
					"bordercolor" : [ 0.086274509803922, 0.568627450980392, 0.588235294117647, 1.0 ],
					"grad1" : [ 0.054901960784314, 0.345098039215686, 0.356862745098039, 1.0 ],
					"grad2" : [ 0.2, 0.2, 0.2, 1.0 ],
					"id" : "obj-91",
					"maxclass" : "panel",
					"mode" : 1,
					"numinlets" : 1,
					"numoutlets" : 0,
					"patching_rect" : [ 17.0, 20.117576599121094, 570.888916015625, 66.567604064941406 ],
					"proportion" : 0.5
				}

			}
, 			{
				"box" : 				{
					"bgcolor" : [ 0.086274509803922, 0.568627450980392, 0.588235294117647, 1.0 ],
					"blinkcolor" : [ 0.054901960784314, 0.345098039215686, 0.356862745098039, 1.0 ],
					"id" : "obj-74",
					"maxclass" : "button",
					"numinlets" : 1,
					"numoutlets" : 1,
					"outlettype" : [ "bang" ],
					"outlinecolor" : [ 0.054901960784314, 0.345098039215686, 0.356862745098039, 1.0 ],
					"parameter_enable" : 0,
					"patching_rect" : [ 481.5811767578125, 91.971504211425781, 24.0, 24.0 ]
				}

			}
, 			{
				"box" : 				{
					"bgcolor" : [ 0.086274509803922, 0.568627450980392, 0.588235294117647, 1.0 ],
					"format" : 6,
					"htricolor" : [ 0.117647058823529, 0.694117647058824, 0.717647058823529, 1.0 ],
					"id" : "obj-75",
					"maxclass" : "flonum",
					"numinlets" : 1,
					"numoutlets" : 2,
					"outlettype" : [ "", "bang" ],
					"parameter_enable" : 0,
					"patching_rect" : [ 526.5811767578125, 91.971504211425781, 50.0, 22.0 ],
					"textcolor" : [ 0.996078431372549, 0.996078431372549, 0.996078431372549, 1.0 ],
					"tricolor" : [ 0.086274509803922, 0.568627450980392, 0.588235294117647, 1.0 ]
				}

			}
, 			{
				"box" : 				{
					"bgcolor" : [ 0.086274509803922, 0.568627450980392, 0.588235294117647, 1.0 ],
					"format" : 6,
					"htricolor" : [ 0.117647058823529, 0.694117647058824, 0.717647058823529, 1.0 ],
					"id" : "obj-76",
					"maxclass" : "flonum",
					"numinlets" : 1,
					"numoutlets" : 2,
					"outlettype" : [ "", "bang" ],
					"parameter_enable" : 0,
					"patching_rect" : [ 409.401702880859375, 91.971504211425781, 50.0, 22.0 ],
					"textcolor" : [ 0.996078431372549, 0.996078431372549, 0.996078431372549, 1.0 ],
					"tricolor" : [ 0.086274509803922, 0.568627450980392, 0.588235294117647, 1.0 ]
				}

			}
, 			{
				"box" : 				{
					"bgcolor" : [ 0.086274509803922, 0.568627450980392, 0.588235294117647, 1.0 ],
					"format" : 6,
					"htricolor" : [ 0.117647058823529, 0.694117647058824, 0.717647058823529, 1.0 ],
					"id" : "obj-77",
					"maxclass" : "flonum",
					"numinlets" : 1,
					"numoutlets" : 2,
					"outlettype" : [ "", "bang" ],
					"parameter_enable" : 0,
					"patching_rect" : [ 409.401702880859375, 215.97149658203125, 50.0, 22.0 ],
					"textcolor" : [ 0.996078431372549, 0.996078431372549, 0.996078431372549, 1.0 ],
					"tricolor" : [ 0.086274509803922, 0.568627450980392, 0.588235294117647, 1.0 ]
				}

			}
, 			{
				"box" : 				{
					"bgcolor" : [ 0.054901960784314, 0.345098039215686, 0.356862745098039, 0.0 ],
					"id" : "obj-78",
					"maxclass" : "comment",
					"numinlets" : 1,
					"numoutlets" : 0,
					"patching_rect" : [ 458.0811767578125, 215.97149658203125, 83.0, 20.0 ],
					"text" : ">> Z distance",
					"textcolor" : [ 0.996078431606293, 0.996078431606293, 0.996078431606293, 1.0 ]
				}

			}
, 			{
				"box" : 				{
					"bgcolor" : [ 0.054901960784314, 0.345098039215686, 0.356862745098039, 0.0 ],
					"id" : "obj-79",
					"maxclass" : "comment",
					"numinlets" : 1,
					"numoutlets" : 0,
					"patching_rect" : [ 439.5811767578125, 186.860382080078125, 133.0, 20.0 ],
					"text" : ">> Calculating distance",
					"textcolor" : [ 0.996078431606293, 0.996078431606293, 0.996078431606293, 1.0 ]
				}

			}
, 			{
				"box" : 				{
					"bgcolor" : [ 0.086274509803922, 0.568627450980392, 0.588235294117647, 1.0 ],
					"color" : [ 0.086274509803922, 0.568627450980392, 0.588235294117647, 1.0 ],
					"id" : "obj-84",
					"maxclass" : "newobj",
					"numinlets" : 2,
					"numoutlets" : 1,
					"outlettype" : [ "int" ],
					"patching_rect" : [ 409.401702880859375, 186.860382080078125, 29.5, 22.0 ],
					"text" : "-",
					"textcolor" : [ 0.996078431606293, 0.996078431606293, 0.996078431606293, 1.0 ]
				}

			}
, 			{
				"box" : 				{
					"bgcolor" : [ 0.086274509803922, 0.568627450980392, 0.588235294117647, 1.0 ],
					"color" : [ 0.054901960784314, 0.372549019607843, 0.384313725490196, 1.0 ],
					"id" : "obj-86",
					"maxclass" : "newobj",
					"numinlets" : 2,
					"numoutlets" : 1,
					"outlettype" : [ "" ],
					"patching_rect" : [ 422.5811767578125, 152.7578125, 154.0, 22.0 ],
					"text" : "if $i1 < $i2 then $i1 else $i2",
					"textcolor" : [ 0.996078431606293, 0.996078431606293, 0.996078431606293, 1.0 ]
				}

			}
, 			{
				"box" : 				{
					"bgcolor" : [ 0.086274509803922, 0.568627450980392, 0.588235294117647, 1.0 ],
					"color" : [ 0.054901960784314, 0.372549019607843, 0.384313725490196, 1.0 ],
					"id" : "obj-87",
					"maxclass" : "newobj",
					"numinlets" : 2,
					"numoutlets" : 1,
					"outlettype" : [ "" ],
					"patching_rect" : [ 409.401702880859375, 127.501411437988281, 157.444442749023438, 22.0 ],
					"text" : "if $i1 > $i2 then $i1 else $i2",
					"textcolor" : [ 0.996078431606293, 0.996078431606293, 0.996078431606293, 1.0 ]
				}

			}
, 			{
				"box" : 				{
					"angle" : 270.0,
					"bordercolor" : [ 0.086274509803922, 0.568627450980392, 0.588235294117647, 1.0 ],
					"grad1" : [ 0.054901960784314, 0.345098039215686, 0.356862745098039, 1.0 ],
					"grad2" : [ 0.2, 0.2, 0.2, 1.0 ],
					"id" : "obj-89",
					"maxclass" : "panel",
					"mode" : 1,
					"numinlets" : 1,
					"numoutlets" : 0,
					"patching_rect" : [ 398.77777099609375, 88.6851806640625, 189.111114501953125, 158.0 ],
					"proportion" : 0.5
				}

			}
, 			{
				"box" : 				{
					"comment" : "",
					"id" : "obj-73",
					"index" : 0,
					"maxclass" : "outlet",
					"numinlets" : 1,
					"numoutlets" : 0,
					"patching_rect" : [ 296.920196533203125, 288.14630126953125, 30.0, 30.0 ],
					"tricolor" : [ 0.086274509803922, 0.568627450980392, 0.588235294117647, 1.0 ]
				}

			}
, 			{
				"box" : 				{
					"bgcolor" : [ 0.086274509803922, 0.568627450980392, 0.588235294117647, 1.0 ],
					"format" : 6,
					"id" : "obj-88",
					"maxclass" : "flonum",
					"numinlets" : 1,
					"numoutlets" : 2,
					"outlettype" : [ "", "bang" ],
					"parameter_enable" : 0,
					"patching_rect" : [ 57.920223236083984, 288.14630126953125, 50.0, 22.0 ],
					"tricolor" : [ 0.054901960784314, 0.345098039215686, 0.356862745098039, 1.0 ]
				}

			}
, 			{
				"box" : 				{
					"bgcolor" : [ 0.086274509803922, 0.568627450980392, 0.588235294117647, 1.0 ],
					"color" : [ 0.054901960784314, 0.372549019607843, 0.384313725490196, 1.0 ],
					"id" : "obj-85",
					"maxclass" : "newobj",
					"numinlets" : 3,
					"numoutlets" : 1,
					"outlettype" : [ "" ],
					"patching_rect" : [ 57.920223236083984, 260.559906005859375, 269.0, 22.0 ],
					"text" : "expr sqrt(pow($i1\\, 2) + pow($i2\\, 2) + pow($i3\\, 2))"
				}

			}
, 			{
				"box" : 				{
					"angle" : 270.0,
					"bordercolor" : [ 0.086274509803922, 0.568627450980392, 0.588235294117647, 1.0 ],
					"grad1" : [ 0.054901960784314, 0.345098039215686, 0.356862745098039, 1.0 ],
					"grad2" : [ 0.2, 0.2, 0.2, 1.0 ],
					"id" : "obj-72",
					"maxclass" : "panel",
					"mode" : 1,
					"numinlets" : 1,
					"numoutlets" : 0,
					"patching_rect" : [ 17.0, 248.885543823242188, 570.888916015625, 81.382415771484375 ],
					"proportion" : 0.5
				}

			}
, 			{
				"box" : 				{
					"bgcolor" : [ 0.086274509803922, 0.568627450980392, 0.588235294117647, 1.0 ],
					"blinkcolor" : [ 0.054901960784314, 0.345098039215686, 0.356862745098039, 1.0 ],
					"id" : "obj-58",
					"maxclass" : "button",
					"numinlets" : 1,
					"numoutlets" : 1,
					"outlettype" : [ "bang" ],
					"outlinecolor" : [ 0.054901960784314, 0.345098039215686, 0.356862745098039, 1.0 ],
					"parameter_enable" : 0,
					"patching_rect" : [ 99.80340576171875, 91.78631591796875, 24.0, 24.0 ]
				}

			}
, 			{
				"box" : 				{
					"bgcolor" : [ 0.086274509803922, 0.568627450980392, 0.588235294117647, 1.0 ],
					"format" : 6,
					"htricolor" : [ 0.117647058823529, 0.694117647058824, 0.717647058823529, 1.0 ],
					"id" : "obj-59",
					"maxclass" : "flonum",
					"numinlets" : 1,
					"numoutlets" : 2,
					"outlettype" : [ "", "bang" ],
					"parameter_enable" : 0,
					"patching_rect" : [ 144.80340576171875, 91.78631591796875, 50.0, 22.0 ],
					"textcolor" : [ 0.996078431372549, 0.996078431372549, 0.996078431372549, 1.0 ],
					"tricolor" : [ 0.086274509803922, 0.568627450980392, 0.588235294117647, 1.0 ]
				}

			}
, 			{
				"box" : 				{
					"bgcolor" : [ 0.086274509803922, 0.568627450980392, 0.588235294117647, 1.0 ],
					"format" : 6,
					"htricolor" : [ 0.117647058823529, 0.694117647058824, 0.717647058823529, 1.0 ],
					"id" : "obj-60",
					"maxclass" : "flonum",
					"numinlets" : 1,
					"numoutlets" : 2,
					"outlettype" : [ "", "bang" ],
					"parameter_enable" : 0,
					"patching_rect" : [ 27.6239013671875, 91.78631591796875, 50.0, 22.0 ],
					"textcolor" : [ 0.996078431372549, 0.996078431372549, 0.996078431372549, 1.0 ],
					"tricolor" : [ 0.086274509803922, 0.568627450980392, 0.588235294117647, 1.0 ]
				}

			}
, 			{
				"box" : 				{
					"bgcolor" : [ 0.086274509803922, 0.568627450980392, 0.588235294117647, 1.0 ],
					"format" : 6,
					"htricolor" : [ 0.117647058823529, 0.694117647058824, 0.717647058823529, 1.0 ],
					"id" : "obj-61",
					"maxclass" : "flonum",
					"numinlets" : 1,
					"numoutlets" : 2,
					"outlettype" : [ "", "bang" ],
					"parameter_enable" : 0,
					"patching_rect" : [ 27.6239013671875, 215.78631591796875, 50.0, 22.0 ],
					"textcolor" : [ 0.996078431372549, 0.996078431372549, 0.996078431372549, 1.0 ],
					"tricolor" : [ 0.086274509803922, 0.568627450980392, 0.588235294117647, 1.0 ]
				}

			}
, 			{
				"box" : 				{
					"bgcolor" : [ 0.054901960784314, 0.345098039215686, 0.356862745098039, 0.0 ],
					"id" : "obj-62",
					"maxclass" : "comment",
					"numinlets" : 1,
					"numoutlets" : 0,
					"patching_rect" : [ 76.30340576171875, 215.78631591796875, 83.0, 20.0 ],
					"text" : ">> X distance",
					"textcolor" : [ 0.996078431606293, 0.996078431606293, 0.996078431606293, 1.0 ]
				}

			}
, 			{
				"box" : 				{
					"bgcolor" : [ 0.054901960784314, 0.345098039215686, 0.356862745098039, 0.0 ],
					"id" : "obj-63",
					"maxclass" : "comment",
					"numinlets" : 1,
					"numoutlets" : 0,
					"patching_rect" : [ 57.80340576171875, 186.675201416015625, 133.0, 20.0 ],
					"text" : ">> Calculating distance",
					"textcolor" : [ 0.996078431606293, 0.996078431606293, 0.996078431606293, 1.0 ]
				}

			}
, 			{
				"box" : 				{
					"bgcolor" : [ 0.086274509803922, 0.568627450980392, 0.588235294117647, 1.0 ],
					"color" : [ 0.086274509803922, 0.568627450980392, 0.588235294117647, 1.0 ],
					"id" : "obj-68",
					"maxclass" : "newobj",
					"numinlets" : 2,
					"numoutlets" : 1,
					"outlettype" : [ "int" ],
					"patching_rect" : [ 27.6239013671875, 186.675201416015625, 29.5, 22.0 ],
					"text" : "-",
					"textcolor" : [ 0.996078431606293, 0.996078431606293, 0.996078431606293, 1.0 ]
				}

			}
, 			{
				"box" : 				{
					"bgcolor" : [ 0.086274509803922, 0.568627450980392, 0.588235294117647, 1.0 ],
					"color" : [ 0.054901960784314, 0.372549019607843, 0.384313725490196, 1.0 ],
					"id" : "obj-69",
					"maxclass" : "newobj",
					"numinlets" : 2,
					"numoutlets" : 1,
					"outlettype" : [ "" ],
					"patching_rect" : [ 40.80340576171875, 152.5726318359375, 154.0, 22.0 ],
					"text" : "if $i1 < $i2 then $i1 else $i2",
					"textcolor" : [ 0.996078431606293, 0.996078431606293, 0.996078431606293, 1.0 ]
				}

			}
, 			{
				"box" : 				{
					"bgcolor" : [ 0.086274509803922, 0.568627450980392, 0.588235294117647, 1.0 ],
					"color" : [ 0.054901960784314, 0.372549019607843, 0.384313725490196, 1.0 ],
					"id" : "obj-70",
					"maxclass" : "newobj",
					"numinlets" : 2,
					"numoutlets" : 1,
					"outlettype" : [ "" ],
					"patching_rect" : [ 27.6239013671875, 127.31622314453125, 157.444442749023438, 22.0 ],
					"text" : "if $i1 > $i2 then $i1 else $i2",
					"textcolor" : [ 0.996078431606293, 0.996078431606293, 0.996078431606293, 1.0 ]
				}

			}
, 			{
				"box" : 				{
					"angle" : 270.0,
					"bordercolor" : [ 0.086274509803922, 0.568627450980392, 0.588235294117647, 1.0 ],
					"grad1" : [ 0.054901960784314, 0.345098039215686, 0.356862745098039, 1.0 ],
					"grad2" : [ 0.2, 0.2, 0.2, 1.0 ],
					"id" : "obj-71",
					"maxclass" : "panel",
					"mode" : 1,
					"numinlets" : 1,
					"numoutlets" : 0,
					"patching_rect" : [ 17.0, 88.5, 189.111114501953125, 158.0 ],
					"proportion" : 0.5
				}

			}
, 			{
				"box" : 				{
					"bgcolor" : [ 0.086274509803922, 0.568627450980392, 0.588235294117647, 1.0 ],
					"blinkcolor" : [ 0.054901960784314, 0.345098039215686, 0.356862745098039, 1.0 ],
					"id" : "obj-45",
					"maxclass" : "button",
					"numinlets" : 1,
					"numoutlets" : 1,
					"outlettype" : [ "bang" ],
					"outlinecolor" : [ 0.054901960784314, 0.345098039215686, 0.356862745098039, 1.0 ],
					"parameter_enable" : 0,
					"patching_rect" : [ 290.80340576171875, 91.78631591796875, 24.0, 24.0 ]
				}

			}
, 			{
				"box" : 				{
					"bgcolor" : [ 0.086274509803922, 0.568627450980392, 0.588235294117647, 1.0 ],
					"format" : 6,
					"htricolor" : [ 0.117647058823529, 0.694117647058824, 0.717647058823529, 1.0 ],
					"id" : "obj-46",
					"maxclass" : "flonum",
					"numinlets" : 1,
					"numoutlets" : 2,
					"outlettype" : [ "", "bang" ],
					"parameter_enable" : 0,
					"patching_rect" : [ 335.80340576171875, 91.78631591796875, 50.0, 22.0 ],
					"textcolor" : [ 0.996078431372549, 0.996078431372549, 0.996078431372549, 1.0 ],
					"tricolor" : [ 0.086274509803922, 0.568627450980392, 0.588235294117647, 1.0 ]
				}

			}
, 			{
				"box" : 				{
					"bgcolor" : [ 0.086274509803922, 0.568627450980392, 0.588235294117647, 1.0 ],
					"format" : 6,
					"htricolor" : [ 0.117647058823529, 0.694117647058824, 0.717647058823529, 1.0 ],
					"id" : "obj-47",
					"maxclass" : "flonum",
					"numinlets" : 1,
					"numoutlets" : 2,
					"outlettype" : [ "", "bang" ],
					"parameter_enable" : 0,
					"patching_rect" : [ 218.623931884765625, 91.78631591796875, 50.0, 22.0 ],
					"textcolor" : [ 0.996078431372549, 0.996078431372549, 0.996078431372549, 1.0 ],
					"tricolor" : [ 0.086274509803922, 0.568627450980392, 0.588235294117647, 1.0 ]
				}

			}
, 			{
				"box" : 				{
					"bgcolor" : [ 0.086274509803922, 0.568627450980392, 0.588235294117647, 1.0 ],
					"format" : 6,
					"htricolor" : [ 0.117647058823529, 0.694117647058824, 0.717647058823529, 1.0 ],
					"id" : "obj-48",
					"maxclass" : "flonum",
					"numinlets" : 1,
					"numoutlets" : 2,
					"outlettype" : [ "", "bang" ],
					"parameter_enable" : 0,
					"patching_rect" : [ 218.623931884765625, 215.78631591796875, 50.0, 22.0 ],
					"textcolor" : [ 0.996078431372549, 0.996078431372549, 0.996078431372549, 1.0 ],
					"tricolor" : [ 0.086274509803922, 0.568627450980392, 0.588235294117647, 1.0 ]
				}

			}
, 			{
				"box" : 				{
					"bgcolor" : [ 0.054901960784314, 0.345098039215686, 0.356862745098039, 0.0 ],
					"id" : "obj-49",
					"maxclass" : "comment",
					"numinlets" : 1,
					"numoutlets" : 0,
					"patching_rect" : [ 267.30340576171875, 215.78631591796875, 83.0, 20.0 ],
					"text" : ">> Y distance",
					"textcolor" : [ 0.996078431606293, 0.996078431606293, 0.996078431606293, 1.0 ]
				}

			}
, 			{
				"box" : 				{
					"bgcolor" : [ 0.054901960784314, 0.345098039215686, 0.356862745098039, 0.0 ],
					"id" : "obj-50",
					"maxclass" : "comment",
					"numinlets" : 1,
					"numoutlets" : 0,
					"patching_rect" : [ 248.80340576171875, 186.675201416015625, 133.0, 20.0 ],
					"text" : ">> Calculating distance",
					"textcolor" : [ 0.996078431606293, 0.996078431606293, 0.996078431606293, 1.0 ]
				}

			}
, 			{
				"box" : 				{
					"bgcolor" : [ 0.086274509803922, 0.568627450980392, 0.588235294117647, 1.0 ],
					"color" : [ 0.086274509803922, 0.568627450980392, 0.588235294117647, 1.0 ],
					"id" : "obj-55",
					"maxclass" : "newobj",
					"numinlets" : 2,
					"numoutlets" : 1,
					"outlettype" : [ "int" ],
					"patching_rect" : [ 218.623931884765625, 186.675201416015625, 29.5, 22.0 ],
					"text" : "-",
					"textcolor" : [ 0.996078431606293, 0.996078431606293, 0.996078431606293, 1.0 ]
				}

			}
, 			{
				"box" : 				{
					"bgcolor" : [ 0.086274509803922, 0.568627450980392, 0.588235294117647, 1.0 ],
					"color" : [ 0.054901960784314, 0.372549019607843, 0.384313725490196, 1.0 ],
					"id" : "obj-56",
					"maxclass" : "newobj",
					"numinlets" : 2,
					"numoutlets" : 1,
					"outlettype" : [ "" ],
					"patching_rect" : [ 231.80340576171875, 152.5726318359375, 154.0, 22.0 ],
					"text" : "if $i1 < $i2 then $i1 else $i2",
					"textcolor" : [ 0.996078431606293, 0.996078431606293, 0.996078431606293, 1.0 ]
				}

			}
, 			{
				"box" : 				{
					"bgcolor" : [ 0.086274509803922, 0.568627450980392, 0.588235294117647, 1.0 ],
					"color" : [ 0.054901960784314, 0.372549019607843, 0.384313725490196, 1.0 ],
					"id" : "obj-57",
					"maxclass" : "newobj",
					"numinlets" : 2,
					"numoutlets" : 1,
					"outlettype" : [ "" ],
					"patching_rect" : [ 218.623931884765625, 127.31622314453125, 157.444442749023438, 22.0 ],
					"text" : "if $i1 > $i2 then $i1 else $i2",
					"textcolor" : [ 0.996078431606293, 0.996078431606293, 0.996078431606293, 1.0 ]
				}

			}
, 			{
				"box" : 				{
					"angle" : 270.0,
					"bordercolor" : [ 0.086274509803922, 0.568627450980392, 0.588235294117647, 1.0 ],
					"grad1" : [ 0.054901960784314, 0.345098039215686, 0.356862745098039, 1.0 ],
					"grad2" : [ 0.2, 0.2, 0.2, 1.0 ],
					"id" : "obj-44",
					"maxclass" : "panel",
					"mode" : 1,
					"numinlets" : 1,
					"numoutlets" : 0,
					"patching_rect" : [ 208.0, 88.5, 189.111114501953125, 158.0 ],
					"proportion" : 0.5
				}

			}
 ],
		"lines" : [ 			{
				"patchline" : 				{
					"destination" : [ "obj-75", 0 ],
					"midpoints" : [ 460.67376708984375, 75.0, 536.0811767578125, 75.0 ],
					"source" : [ "obj-108", 0 ]
				}

			}
, 			{
				"patchline" : 				{
					"destination" : [ "obj-46", 0 ],
					"midpoints" : [ 434.48858642578125, 75.0, 345.30340576171875, 75.0 ],
					"source" : [ "obj-109", 0 ]
				}

			}
, 			{
				"patchline" : 				{
					"destination" : [ "obj-59", 0 ],
					"midpoints" : [ 408.30340576171875, 75.0, 154.30340576171875, 75.0 ],
					"source" : [ "obj-110", 0 ]
				}

			}
, 			{
				"patchline" : 				{
					"destination" : [ "obj-47", 0 ],
					"midpoints" : [ 300.30340576171875, 117.0, 270.0, 117.0, 270.0, 87.0, 228.123931884765625, 87.0 ],
					"source" : [ "obj-45", 0 ]
				}

			}
, 			{
				"patchline" : 				{
					"destination" : [ "obj-45", 0 ],
					"midpoints" : [ 345.30340576171875, 114.0, 315.0, 114.0, 315.0, 87.0, 300.30340576171875, 87.0 ],
					"order" : 2,
					"source" : [ "obj-46", 0 ]
				}

			}
, 			{
				"patchline" : 				{
					"destination" : [ "obj-56", 1 ],
					"midpoints" : [ 345.30340576171875, 123.0, 376.30340576171875, 123.0 ],
					"order" : 0,
					"source" : [ "obj-46", 0 ]
				}

			}
, 			{
				"patchline" : 				{
					"destination" : [ "obj-57", 1 ],
					"midpoints" : [ 345.30340576171875, 123.0, 366.568374633789063, 123.0 ],
					"order" : 1,
					"source" : [ "obj-46", 0 ]
				}

			}
, 			{
				"patchline" : 				{
					"destination" : [ "obj-56", 0 ],
					"midpoints" : [ 228.123931884765625, 123.0, 213.0, 123.0, 213.0, 150.0, 241.30340576171875, 150.0 ],
					"order" : 0,
					"source" : [ "obj-47", 0 ]
				}

			}
, 			{
				"patchline" : 				{
					"destination" : [ "obj-57", 0 ],
					"midpoints" : [ 228.123931884765625, 114.0, 228.123931884765625, 114.0 ],
					"order" : 1,
					"source" : [ "obj-47", 0 ]
				}

			}
, 			{
				"patchline" : 				{
					"destination" : [ "obj-58", 0 ],
					"midpoints" : [ 228.123931884765625, 240.0, 204.0, 240.0, 204.0, 87.0, 109.30340576171875, 87.0 ],
					"order" : 1,
					"source" : [ "obj-48", 0 ]
				}

			}
, 			{
				"patchline" : 				{
					"destination" : [ "obj-85", 1 ],
					"midpoints" : [ 228.123931884765625, 246.0, 192.420223236083984, 246.0 ],
					"order" : 0,
					"source" : [ "obj-48", 0 ]
				}

			}
, 			{
				"patchline" : 				{
					"destination" : [ "obj-48", 0 ],
					"midpoints" : [ 228.123931884765625, 210.0, 228.123931884765625, 210.0 ],
					"source" : [ "obj-55", 0 ]
				}

			}
, 			{
				"patchline" : 				{
					"destination" : [ "obj-55", 1 ],
					"midpoints" : [ 241.30340576171875, 177.0, 238.623931884765625, 177.0 ],
					"source" : [ "obj-56", 0 ]
				}

			}
, 			{
				"patchline" : 				{
					"destination" : [ "obj-55", 0 ],
					"midpoints" : [ 228.123931884765625, 150.0, 228.123931884765625, 150.0 ],
					"source" : [ "obj-57", 0 ]
				}

			}
, 			{
				"patchline" : 				{
					"destination" : [ "obj-60", 0 ],
					"midpoints" : [ 109.30340576171875, 117.0, 78.0, 117.0, 78.0, 87.0, 37.1239013671875, 87.0 ],
					"source" : [ "obj-58", 0 ]
				}

			}
, 			{
				"patchline" : 				{
					"destination" : [ "obj-58", 0 ],
					"midpoints" : [ 154.30340576171875, 114.0, 123.0, 114.0, 123.0, 87.0, 109.30340576171875, 87.0 ],
					"order" : 2,
					"source" : [ "obj-59", 0 ]
				}

			}
, 			{
				"patchline" : 				{
					"destination" : [ "obj-69", 1 ],
					"midpoints" : [ 154.30340576171875, 123.0, 186.0, 123.0, 186.0, 147.0, 185.30340576171875, 147.0 ],
					"order" : 0,
					"source" : [ "obj-59", 0 ]
				}

			}
, 			{
				"patchline" : 				{
					"destination" : [ "obj-70", 1 ],
					"midpoints" : [ 154.30340576171875, 123.0, 175.568344116210938, 123.0 ],
					"order" : 1,
					"source" : [ "obj-59", 0 ]
				}

			}
, 			{
				"patchline" : 				{
					"destination" : [ "obj-69", 0 ],
					"midpoints" : [ 37.1239013671875, 123.0, 24.0, 123.0, 24.0, 150.0, 50.30340576171875, 150.0 ],
					"order" : 0,
					"source" : [ "obj-60", 0 ]
				}

			}
, 			{
				"patchline" : 				{
					"destination" : [ "obj-70", 0 ],
					"midpoints" : [ 37.1239013671875, 114.0, 37.1239013671875, 114.0 ],
					"order" : 1,
					"source" : [ "obj-60", 0 ]
				}

			}
, 			{
				"patchline" : 				{
					"destination" : [ "obj-85", 0 ],
					"midpoints" : [ 37.1239013671875, 255.0, 67.420223236083984, 255.0 ],
					"source" : [ "obj-61", 0 ]
				}

			}
, 			{
				"patchline" : 				{
					"destination" : [ "obj-61", 0 ],
					"midpoints" : [ 37.1239013671875, 210.0, 37.1239013671875, 210.0 ],
					"source" : [ "obj-68", 0 ]
				}

			}
, 			{
				"patchline" : 				{
					"destination" : [ "obj-68", 1 ],
					"midpoints" : [ 50.30340576171875, 177.0, 47.6239013671875, 177.0 ],
					"source" : [ "obj-69", 0 ]
				}

			}
, 			{
				"patchline" : 				{
					"destination" : [ "obj-68", 0 ],
					"midpoints" : [ 37.1239013671875, 150.0, 37.1239013671875, 150.0 ],
					"source" : [ "obj-70", 0 ]
				}

			}
, 			{
				"patchline" : 				{
					"destination" : [ "obj-76", 0 ],
					"midpoints" : [ 491.0811767578125, 117.0, 459.0, 117.0, 459.0, 87.0, 418.901702880859375, 87.0 ],
					"source" : [ "obj-74", 0 ]
				}

			}
, 			{
				"patchline" : 				{
					"destination" : [ "obj-74", 0 ],
					"midpoints" : [ 536.0811767578125, 114.0, 507.0, 114.0, 507.0, 87.0, 491.0811767578125, 87.0 ],
					"order" : 2,
					"source" : [ "obj-75", 0 ]
				}

			}
, 			{
				"patchline" : 				{
					"destination" : [ "obj-86", 1 ],
					"midpoints" : [ 536.0811767578125, 123.0, 567.0811767578125, 123.0 ],
					"order" : 0,
					"source" : [ "obj-75", 0 ]
				}

			}
, 			{
				"patchline" : 				{
					"destination" : [ "obj-87", 1 ],
					"midpoints" : [ 536.0811767578125, 123.0, 557.346145629882813, 123.0 ],
					"order" : 1,
					"source" : [ "obj-75", 0 ]
				}

			}
, 			{
				"patchline" : 				{
					"destination" : [ "obj-86", 0 ],
					"midpoints" : [ 418.901702880859375, 123.0, 405.0, 123.0, 405.0, 150.0, 432.0811767578125, 150.0 ],
					"order" : 0,
					"source" : [ "obj-76", 0 ]
				}

			}
, 			{
				"patchline" : 				{
					"destination" : [ "obj-87", 0 ],
					"midpoints" : [ 418.901702880859375, 114.0, 418.901702880859375, 114.0 ],
					"order" : 1,
					"source" : [ "obj-76", 0 ]
				}

			}
, 			{
				"patchline" : 				{
					"destination" : [ "obj-58", 0 ],
					"midpoints" : [ 418.901702880859375, 240.0, 552.0, 240.0, 552.0, 216.0, 582.185185670852661, 216.0, 582.185185670852661, 78.59259021282196, 108.925922453403473, 78.59259021282196, 108.925922453403473, 87.0, 109.30340576171875, 87.0 ],
					"order" : 1,
					"source" : [ "obj-77", 0 ]
				}

			}
, 			{
				"patchline" : 				{
					"destination" : [ "obj-85", 2 ],
					"midpoints" : [ 418.901702880859375, 240.0, 317.420223236083984, 240.0 ],
					"order" : 0,
					"source" : [ "obj-77", 0 ]
				}

			}
, 			{
				"patchline" : 				{
					"destination" : [ "obj-77", 0 ],
					"midpoints" : [ 418.901702880859375, 210.0, 418.901702880859375, 210.0 ],
					"source" : [ "obj-84", 0 ]
				}

			}
, 			{
				"patchline" : 				{
					"destination" : [ "obj-88", 0 ],
					"midpoints" : [ 67.420223236083984, 285.0, 67.420223236083984, 285.0 ],
					"source" : [ "obj-85", 0 ]
				}

			}
, 			{
				"patchline" : 				{
					"destination" : [ "obj-84", 1 ],
					"midpoints" : [ 432.0811767578125, 177.0, 429.401702880859375, 177.0 ],
					"source" : [ "obj-86", 0 ]
				}

			}
, 			{
				"patchline" : 				{
					"destination" : [ "obj-84", 0 ],
					"midpoints" : [ 418.901702880859375, 150.0, 418.901702880859375, 150.0 ],
					"source" : [ "obj-87", 0 ]
				}

			}
, 			{
				"patchline" : 				{
					"destination" : [ "obj-73", 0 ],
					"midpoints" : [ 67.420223236083984, 321.0, 282.518524169921875, 321.0, 282.518524169921875, 282.0, 306.420196533203125, 282.0 ],
					"source" : [ "obj-88", 0 ]
				}

			}
, 			{
				"patchline" : 				{
					"destination" : [ "obj-60", 0 ],
					"midpoints" : [ 217.30340576171875, 75.0, 37.1239013671875, 75.0 ],
					"source" : [ "obj-96", 0 ]
				}

			}
, 			{
				"patchline" : 				{
					"destination" : [ "obj-47", 0 ],
					"midpoints" : [ 243.48858642578125, 75.0, 231.0, 75.0, 231.0, 87.0, 228.123931884765625, 87.0 ],
					"source" : [ "obj-97", 0 ]
				}

			}
, 			{
				"patchline" : 				{
					"destination" : [ "obj-76", 0 ],
					"midpoints" : [ 269.67376708984375, 75.0, 414.0, 75.0, 414.0, 87.0, 418.901702880859375, 87.0 ],
					"source" : [ "obj-98", 0 ]
				}

			}
 ],
		"dependency_cache" : [  ],
		"autosave" : 0
	}

}
